<svg version="1.2" xmlns="http://www.w3.org/2000/svg" viewBox="0 0 24 24" width="24" height="24">
	<title>list-svg</title>
	<style>
		.s0 { fill: #ffffff } 
	</style>
	<path id="Layer" class="s0" d="m18.8 17.2l-5.2-5.2 5.2-5.2c0.4-0.4 0.4-1.1 0-1.5-0.5-0.4-1.1-0.4-1.6 0l-5.1 5.2-5.2-5.2c-0.4-0.4-1.1-0.4-1.6 0-0.4 0.4-0.4 1.1 0 1.5l5.2 5.2-5.2 5.2c-0.4 0.5-0.4 1.1 0 1.6 0.2 0.2 0.5 0.3 0.8 0.3 0.3 0 0.5-0.1 0.7-0.3l5.3-5.2 5.2 5.2c0.2 0.2 0.4 0.3 0.7 0.3 0.3 0 0.6-0.1 0.8-0.3 0.4-0.5 0.4-1.1 0-1.6z"/>
</svg>